<svg width="100" height="66" viewBox="0 0 100 66" fill="none" xmlns="http://www.w3.org/2000/svg">
<path d="M0.238281 44.62H18.7225C24.0568 41.0256 27.4933 38.4971 33.982 34.6663L24.1034 34.1221C14.2588 38.0861 0.238281 44.62 0.238281 44.62Z" fill="#8D8D8D"/>
<path d="M47.5881 25.9688L31.1523 31.8115L38.6693 32.6066L52.7339 26.6254L47.5881 25.9688Z" fill="#8D8D8D"/>
<path d="M67.5869 20.627L70.3664 21.3398L57.6362 25.3421L52.6875 24.6807L67.5869 20.627Z" fill="#8D8D8D"/>
<path d="M82.5229 18.1299L83.7204 18.6856L73.3053 20.4909L71.5166 19.9491L82.5229 18.1299Z" fill="#8D8D8D"/>
<path d="M85.4717 17.6699L86.0725 18.0451L99.0787 17.3467L85.4717 17.6699Z" fill="#8D8D8D"/>
<path d="M0.0976562 44.1672H18.5819C23.9162 40.5725 27.3526 38.044 33.8414 34.2132L23.9628 33.6689C14.1182 37.6329 0.0976562 44.1672 0.0976562 44.1672Z" fill="#8D8D8D"/>
<path d="M47.4475 25.5166L31.0117 31.3594L38.5287 32.1545L52.5933 26.1733L47.4475 25.5166Z" fill="#8D8D8D"/>
<path d="M67.4462 20.1738L70.2258 20.8867L57.4955 24.889L52.5469 24.2276L67.4462 20.1738Z" fill="#8D8D8D"/>
<path d="M82.3833 17.6768L83.5807 18.2325L73.1656 20.0377L71.377 19.4961L82.3833 17.6768Z" fill="#8D8D8D"/>
<path d="M85.332 17.2168L85.9328 17.592L98.939 16.8936L85.332 17.2168Z" fill="#8D8D8D"/>
<path fill-rule="evenodd" clip-rule="evenodd" d="M49.9616 0C41.769 0 35.1279 6.18088 35.1279 13.8054C35.1279 18.375 36.8555 23.4054 39.8517 27.3682C40.572 27.0805 41.4689 26.7637 42.8292 26.2831C44.601 25.6574 47.1588 24.754 51.1372 23.2753C56.7377 21.4231 61.1413 20.0499 64.0047 19.3799C64.5225 17.513 64.7958 15.6228 64.7958 13.8054C64.7958 6.18088 58.1542 0 49.9616 0ZM61.5231 25.2022C59.1587 26.3336 56.0562 27.522 52.644 28.6936C50.0898 29.5708 47.9809 30.3704 46.2273 31.0351C45.5499 31.292 44.9254 31.5288 44.3487 31.7422C45.2616 32.3754 46.23 32.9188 47.2492 33.3544C48.9712 34.0901 50.9524 34.0901 52.6745 33.3544C56.3783 31.7714 59.4155 28.7626 61.5231 25.2022ZM54.2 14.834C54.2 17.1748 52.3027 19.0722 49.9616 19.0722C47.6209 19.0722 45.7237 17.1748 45.7237 14.834C45.7237 12.4932 47.6209 10.5957 49.9616 10.5957C52.3027 10.5957 54.2 12.4932 54.2 14.834Z" fill="#8D8D8D"/>
<path d="M49.7562 38.6129C53.8085 38.6129 57.0935 38.2479 57.0935 37.7977C57.0935 37.3474 53.8085 36.9824 49.7562 36.9824C45.704 36.9824 42.4189 37.3474 42.4189 37.7977C42.4189 38.2479 45.704 38.6129 49.7562 38.6129Z" fill="#8D8D8D"/>
<path d="M2.7976 61.5902C2.7976 63.2082 3.64916 64.017 5.35223 64.017C7.05534 64.017 7.90685 63.2082 7.90685 61.5902V53.0869H9.95055V61.5537C9.95055 63.0258 9.56128 64.1024 8.78272 64.7834C8.01633 65.4527 6.86675 65.787 5.33398 65.787C3.81339 65.787 2.66987 65.4527 1.90349 64.7834C1.1371 64.1024 0.753906 63.0258 0.753906 61.5537V53.0869H2.7976V61.5902ZM14.7567 61.134V65.5863H12.7313V53.0869H17.4756C20.2978 53.0869 21.7089 54.413 21.7089 57.0648C21.7089 58.8412 21.0278 60.0455 19.6653 60.6778L21.7271 65.5863H19.501L17.6946 61.134H14.7567ZM19.6288 57.0831C19.6288 55.5868 18.911 54.8387 17.4756 54.8387H14.7567V59.3822H17.5121C18.242 59.3822 18.7772 59.1756 19.1178 58.7618C19.4584 58.3362 19.6288 57.7765 19.6288 57.0831ZM24.0112 53.0869H28.7555C30.0328 53.0869 30.9876 53.3488 31.6203 53.8715C32.2526 54.3825 32.5692 55.2036 32.5692 56.3349C32.5692 57.0771 32.4474 57.6611 32.2043 58.0867C31.973 58.5128 31.6021 58.8654 31.0912 59.145C32.2832 59.6076 32.8794 60.5747 32.8794 62.0463C32.8794 64.4066 31.5533 65.5863 28.9015 65.5863H24.0112V53.0869ZM28.7555 60.1304H26.0367V63.8346H28.792C29.4608 63.8346 29.9598 63.695 30.2883 63.4149C30.6286 63.1352 30.7992 62.6549 30.7992 61.9733C30.7992 61.2923 30.6044 60.8178 30.2153 60.5501C29.8257 60.2704 29.3394 60.1304 28.7555 60.1304ZM28.646 54.8387H26.0367V58.4151H28.719C29.911 58.4151 30.5073 57.8011 30.5073 56.5721C30.5073 55.4166 29.8869 54.8387 28.646 54.8387ZM33.9469 65.5863L37.0307 53.0869H41.0633L44.1654 65.5863H42.1217L41.4465 62.904H36.6475L35.9723 65.5863H33.9469ZM38.5999 54.7839L37.0489 61.1157H41.0451L39.5123 54.7839H38.5999ZM45.9472 65.5863V53.0869H49.4872L53.2826 63.7981H53.5563V53.0869H55.5818V65.5863H52.1148L48.2281 54.8569H47.9727V65.5863H45.9472Z" fill="#8D8D8D"/>
<path d="M67.5761 60.3865V59.1274H71.0613V65.3315C69.5286 65.6234 68.16 65.7694 66.9557 65.7694C65.1187 65.7694 63.8413 65.2403 63.1238 64.1819C62.4181 63.1236 62.0654 61.4936 62.0654 59.2916C62.0654 57.0778 62.4181 55.4414 63.1238 54.3831C63.8413 53.3129 65.1063 52.7773 66.9192 52.7773C68.0505 52.7773 69.2243 52.8991 70.4409 53.1423L71.0613 53.2518L71.0066 54.4196C69.498 54.1641 68.1901 54.0364 67.0834 54.0364C65.6843 54.0364 64.7414 54.4442 64.2551 55.259C63.7684 56.0619 63.5252 57.4062 63.5252 59.2916C63.5252 61.1652 63.7684 62.5095 64.2551 63.3243C64.7414 64.1272 65.6784 64.5286 67.0652 64.5286C67.9164 64.5286 68.7864 64.4438 69.6745 64.2731V60.3865H67.5761ZM75.2254 60.7514V65.5869H73.8203V52.9598H78.4916C79.8296 52.9598 80.8332 53.27 81.5025 53.8904C82.1835 54.5108 82.5243 55.4779 82.5243 56.7917C82.5243 58.7383 81.752 59.9609 80.2069 60.4595L82.6338 65.5869H81.0828L78.8018 60.7514H75.2254ZM78.5099 59.5106C80.2251 59.5106 81.0828 58.6288 81.0828 56.8647C81.0828 55.0888 80.2192 54.2006 78.4916 54.2006H75.2254V59.5106H78.5099ZM85.0643 65.5869V52.9598H86.4694V65.5869H85.0643ZM94.0621 65.5869H89.555V52.9598H94.0621C96.1181 52.9598 97.4807 53.775 98.1495 55.405C98.539 56.342 98.7334 57.5705 98.7334 59.0909C98.7334 62.2659 97.9428 64.2672 96.3612 65.0943C95.729 65.4227 94.9626 65.5869 94.0621 65.5869ZM97.2918 59.0909C97.2918 56.6704 96.7508 55.1618 95.6678 54.5656C95.2299 54.3224 94.6948 54.2006 94.0621 54.2006H90.96V64.3461H94.0621C96.2152 64.3461 97.2918 62.5944 97.2918 59.0909Z" fill="#8D8D8D"/>
</svg>
